<mxfile host="app.diagrams.net" agent="Mozilla/5.0 (Windows NT 10.0; Win64; x64) AppleWebKit/537.36 (KHTML, like Gecko) Chrome/138.0.0.0 Safari/537.36 Edg/138.0.0.0" version="26.0.14">
  <diagram name="第 1 页" id="UxaiM1MKUDCpDS3gVePv">
    <mxGraphModel dx="2198" dy="1959" grid="1" gridSize="10" guides="1" tooltips="1" connect="1" arrows="1" fold="1" page="1" pageScale="1" pageWidth="827" pageHeight="1169" math="0" shadow="0">
      <root>
        <mxCell id="0" />
        <mxCell id="1" parent="0" />
        <mxCell id="0_duTo_WQNxxpT2Jceww-1" value="&lt;div&gt;&lt;br&gt;&lt;/div&gt;" style="rounded=0;whiteSpace=wrap;html=1;dashed=1;dashPattern=12 12;align=left;fillColor=#f5f5f5;fontColor=#333333;strokeColor=#666666;" vertex="1" parent="1">
          <mxGeometry x="183" y="-140" width="180" height="270" as="geometry" />
        </mxCell>
        <mxCell id="0_duTo_WQNxxpT2Jceww-2" value="DBSCAN&lt;span style=&quot;background-color: initial;&quot;&gt;聚类&lt;/span&gt;&lt;div&gt;&lt;span style=&quot;background-color: initial;&quot;&gt;&lt;font color=&quot;#ff3333&quot;&gt;&lt;b&gt;地面分割&lt;/b&gt;&lt;/font&gt;&lt;/span&gt;&lt;/div&gt;" style="whiteSpace=wrap;html=1;rounded=0;fillColor=#f8cecc;strokeColor=#b85450;" vertex="1" parent="1">
          <mxGeometry x="400" y="-50" width="120" height="90" as="geometry" />
        </mxCell>
        <mxCell id="0_duTo_WQNxxpT2Jceww-3" style="edgeStyle=orthogonalEdgeStyle;rounded=0;orthogonalLoop=1;jettySize=auto;html=1;exitX=1;exitY=0.75;exitDx=0;exitDy=0;entryX=0;entryY=0.75;entryDx=0;entryDy=0;fillColor=#e51400;strokeColor=#9999FF;dashed=1;" edge="1" parent="1" source="0_duTo_WQNxxpT2Jceww-7" target="0_duTo_WQNxxpT2Jceww-23">
          <mxGeometry relative="1" as="geometry">
            <mxPoint x="-100.36" y="-78.5" as="sourcePoint" />
            <mxPoint x="10.000000000000128" y="-77.5" as="targetPoint" />
            <Array as="points">
              <mxPoint x="-120" y="-73" />
            </Array>
          </mxGeometry>
        </mxCell>
        <mxCell id="0_duTo_WQNxxpT2Jceww-4" value="&lt;font color=&quot;#9999ff&quot;&gt;8mm降采样&lt;/font&gt;" style="edgeLabel;html=1;align=center;verticalAlign=middle;resizable=0;points=[];" vertex="1" connectable="0" parent="0_duTo_WQNxxpT2Jceww-3">
          <mxGeometry x="-0.0222" y="-2" relative="1" as="geometry">
            <mxPoint x="27" y="-3" as="offset" />
          </mxGeometry>
        </mxCell>
        <mxCell id="0_duTo_WQNxxpT2Jceww-5" style="edgeStyle=orthogonalEdgeStyle;dashed=1;rounded=0;orthogonalLoop=1;jettySize=auto;html=1;exitX=1;exitY=0.25;exitDx=0;exitDy=0;entryX=0;entryY=0.25;entryDx=0;entryDy=0;" edge="1" parent="1" source="0_duTo_WQNxxpT2Jceww-7" target="0_duTo_WQNxxpT2Jceww-23">
          <mxGeometry relative="1" as="geometry">
            <mxPoint x="-100.36" y="-98.5" as="sourcePoint" />
            <mxPoint x="9.64" y="-98.5" as="targetPoint" />
          </mxGeometry>
        </mxCell>
        <mxCell id="0_duTo_WQNxxpT2Jceww-6" value="2.5mm降采样" style="edgeLabel;html=1;align=center;verticalAlign=middle;resizable=0;points=[];" vertex="1" connectable="0" parent="0_duTo_WQNxxpT2Jceww-5">
          <mxGeometry x="-0.1778" relative="1" as="geometry">
            <mxPoint x="5" as="offset" />
          </mxGeometry>
        </mxCell>
        <mxCell id="0_duTo_WQNxxpT2Jceww-7" value="点云&lt;div&gt;&lt;span style=&quot;color: rgb(23, 43, 77); font-family: -apple-system, BlinkMacSystemFont, &amp;quot;Segoe UI&amp;quot;, Roboto, Oxygen, Ubuntu, &amp;quot;Fira Sans&amp;quot;, &amp;quot;Droid Sans&amp;quot;, &amp;quot;Helvetica Neue&amp;quot;, sans-serif; text-align: left;&quot;&gt;（x，y，z, intensity）&lt;/span&gt;&lt;/div&gt;" style="rounded=1;whiteSpace=wrap;html=1;fillColor=#b1ddf0;strokeColor=#10739e;" vertex="1" parent="1">
          <mxGeometry x="-210" y="-119" width="120" height="60" as="geometry" />
        </mxCell>
        <mxCell id="0_duTo_WQNxxpT2Jceww-8" style="edgeStyle=orthogonalEdgeStyle;rounded=0;orthogonalLoop=1;jettySize=auto;html=1;exitX=1;exitY=0.5;exitDx=0;exitDy=0;" edge="1" parent="1">
          <mxGeometry relative="1" as="geometry">
            <mxPoint x="121" y="106" as="sourcePoint" />
            <mxPoint x="270" y="-50" as="targetPoint" />
            <Array as="points">
              <mxPoint x="173" y="106" />
              <mxPoint x="173" y="-50" />
              <mxPoint x="270" y="-50" />
            </Array>
          </mxGeometry>
        </mxCell>
        <mxCell id="0_duTo_WQNxxpT2Jceww-9" value="&lt;font style=&quot;font-size: 12px;&quot;&gt;人工特征&lt;/font&gt;&lt;div&gt;&lt;font style=&quot;font-size: 12px;&quot;&gt;&lt;span style=&quot;color: rgb(23, 43, 77); font-family: -apple-system, BlinkMacSystemFont, &amp;quot;Segoe UI&amp;quot;, Roboto, Oxygen, Ubuntu, &amp;quot;Fira Sans&amp;quot;, &amp;quot;Droid Sans&amp;quot;, &amp;quot;Helvetica Neue&amp;quot;, sans-serif; text-align: left;&quot;&gt;（nx, ny, nz，&lt;/span&gt;&lt;span style=&quot;font-family: -apple-system, BlinkMacSystemFont, &amp;quot;Segoe UI&amp;quot;, Roboto, Oxygen, Ubuntu, &amp;quot;Fira Sans&amp;quot;, &amp;quot;Droid Sans&amp;quot;, &amp;quot;Helvetica Neue&amp;quot;, sans-serif; text-align: left; color: rgb(17, 17, 17);&quot;&gt;curvature&lt;/span&gt;&lt;span style=&quot;color: rgb(23, 43, 77); font-family: -apple-system, BlinkMacSystemFont, &amp;quot;Segoe UI&amp;quot;, Roboto, Oxygen, Ubuntu, &amp;quot;Fira Sans&amp;quot;, &amp;quot;Droid Sans&amp;quot;, &amp;quot;Helvetica Neue&amp;quot;, sans-serif; text-align: left;&quot;&gt;）&amp;nbsp;&lt;/span&gt;&lt;/font&gt;&lt;/div&gt;" style="rounded=1;whiteSpace=wrap;html=1;fillColor=#cce5ff;strokeColor=#36393d;" vertex="1" parent="1">
          <mxGeometry y="80" width="121" height="60" as="geometry" />
        </mxCell>
        <mxCell id="0_duTo_WQNxxpT2Jceww-10" value="" style="whiteSpace=wrap;html=1;rounded=0;dashed=1;dashPattern=12 12;fillColor=#f5f5f5;fontColor=#333333;strokeColor=#666666;" vertex="1" parent="1">
          <mxGeometry x="570" y="-140" width="170" height="270" as="geometry" />
        </mxCell>
        <mxCell id="0_duTo_WQNxxpT2Jceww-11" value="底板/地面点云&lt;div&gt;&lt;span style=&quot;color: rgb(23, 43, 77); font-family: -apple-system, BlinkMacSystemFont, &amp;quot;Segoe UI&amp;quot;, Roboto, Oxygen, Ubuntu, &amp;quot;Fira Sans&amp;quot;, &amp;quot;Droid Sans&amp;quot;, &amp;quot;Helvetica Neue&amp;quot;, sans-serif; text-align: left;&quot;&gt;（x，y，z, intensity）&lt;/span&gt;&lt;/div&gt;" style="rounded=1;whiteSpace=wrap;html=1;fillColor=#d5e8d4;strokeColor=#82b366;" vertex="1" parent="1">
          <mxGeometry x="780" y="-118" width="120" height="60" as="geometry" />
        </mxCell>
        <mxCell id="0_duTo_WQNxxpT2Jceww-12" value="其他点云&lt;div&gt;&lt;span style=&quot;color: rgb(23, 43, 77); font-family: -apple-system, BlinkMacSystemFont, &amp;quot;Segoe UI&amp;quot;, Roboto, Oxygen, Ubuntu, &amp;quot;Fira Sans&amp;quot;, &amp;quot;Droid Sans&amp;quot;, &amp;quot;Helvetica Neue&amp;quot;, sans-serif; text-align: left;&quot;&gt;（x，y，z, intensity）&lt;/span&gt;&lt;/div&gt;" style="rounded=1;whiteSpace=wrap;html=1;fillColor=#d5e8d4;strokeColor=#82b366;" vertex="1" parent="1">
          <mxGeometry x="780" y="70" width="120" height="60" as="geometry" />
        </mxCell>
        <mxCell id="0_duTo_WQNxxpT2Jceww-13" style="edgeStyle=orthogonalEdgeStyle;rounded=0;orthogonalLoop=1;jettySize=auto;html=1;exitX=0.5;exitY=1;exitDx=0;exitDy=0;entryX=0.5;entryY=0;entryDx=0;entryDy=0;" edge="1" parent="1" source="0_duTo_WQNxxpT2Jceww-18" target="0_duTo_WQNxxpT2Jceww-9">
          <mxGeometry relative="1" as="geometry" />
        </mxCell>
        <mxCell id="0_duTo_WQNxxpT2Jceww-14" value="Y" style="edgeLabel;html=1;align=center;verticalAlign=middle;resizable=0;points=[];" vertex="1" connectable="0" parent="0_duTo_WQNxxpT2Jceww-13">
          <mxGeometry x="-0.2" y="-1" relative="1" as="geometry">
            <mxPoint y="-6" as="offset" />
          </mxGeometry>
        </mxCell>
        <mxCell id="0_duTo_WQNxxpT2Jceww-15" value="特征提取" style="edgeLabel;html=1;align=center;verticalAlign=middle;resizable=0;points=[];" vertex="1" connectable="0" parent="0_duTo_WQNxxpT2Jceww-13">
          <mxGeometry x="0.3118" y="1" relative="1" as="geometry">
            <mxPoint x="-25" y="1" as="offset" />
          </mxGeometry>
        </mxCell>
        <mxCell id="0_duTo_WQNxxpT2Jceww-16" style="edgeStyle=orthogonalEdgeStyle;rounded=0;orthogonalLoop=1;jettySize=auto;html=1;exitX=0;exitY=0.5;exitDx=0;exitDy=0;entryX=0.5;entryY=1;entryDx=0;entryDy=0;strokeColor=#9999FF;dashed=1;" edge="1" parent="1" source="0_duTo_WQNxxpT2Jceww-18" target="0_duTo_WQNxxpT2Jceww-7">
          <mxGeometry relative="1" as="geometry" />
        </mxCell>
        <mxCell id="0_duTo_WQNxxpT2Jceww-17" value="&lt;font color=&quot;#9999ff&quot;&gt;N&lt;/font&gt;" style="edgeLabel;html=1;align=center;verticalAlign=middle;resizable=0;points=[];" vertex="1" connectable="0" parent="0_duTo_WQNxxpT2Jceww-16">
          <mxGeometry x="-0.6667" relative="1" as="geometry">
            <mxPoint as="offset" />
          </mxGeometry>
        </mxCell>
        <mxCell id="0_duTo_WQNxxpT2Jceww-18" value="&amp;lt;400000" style="rhombus;whiteSpace=wrap;html=1;fillColor=#fff2cc;strokeColor=#d6b656;" vertex="1" parent="1">
          <mxGeometry x="21" y="-36" width="80" height="70" as="geometry" />
        </mxCell>
        <mxCell id="0_duTo_WQNxxpT2Jceww-19" style="edgeStyle=orthogonalEdgeStyle;rounded=0;orthogonalLoop=1;jettySize=auto;html=1;exitX=1;exitY=0.5;exitDx=0;exitDy=0;entryX=0;entryY=0.5;entryDx=0;entryDy=0;" edge="1" parent="1" source="0_duTo_WQNxxpT2Jceww-23" target="0_duTo_WQNxxpT2Jceww-26">
          <mxGeometry relative="1" as="geometry">
            <Array as="points">
              <mxPoint x="130" y="-88" />
            </Array>
          </mxGeometry>
        </mxCell>
        <mxCell id="0_duTo_WQNxxpT2Jceww-20" style="edgeStyle=orthogonalEdgeStyle;rounded=0;orthogonalLoop=1;jettySize=auto;html=1;exitX=0.5;exitY=1;exitDx=0;exitDy=0;entryX=0.5;entryY=0;entryDx=0;entryDy=0;" edge="1" parent="1" source="0_duTo_WQNxxpT2Jceww-23" target="0_duTo_WQNxxpT2Jceww-18">
          <mxGeometry relative="1" as="geometry" />
        </mxCell>
        <mxCell id="0_duTo_WQNxxpT2Jceww-21" style="edgeStyle=orthogonalEdgeStyle;rounded=0;orthogonalLoop=1;jettySize=auto;html=1;exitX=1;exitY=0.5;exitDx=0;exitDy=0;entryX=0.5;entryY=1;entryDx=0;entryDy=0;dashed=1;fillColor=#e51400;strokeColor=#9999FF;" edge="1" parent="1" source="0_duTo_WQNxxpT2Jceww-23" target="0_duTo_WQNxxpT2Jceww-39">
          <mxGeometry relative="1" as="geometry">
            <Array as="points">
              <mxPoint x="140" y="-88" />
              <mxPoint x="140" y="140" />
              <mxPoint x="660" y="140" />
            </Array>
          </mxGeometry>
        </mxCell>
        <mxCell id="0_duTo_WQNxxpT2Jceww-22" value="&lt;font color=&quot;#9999ff&quot;&gt;2.5mm&lt;/font&gt;" style="edgeLabel;html=1;align=center;verticalAlign=middle;resizable=0;points=[];" vertex="1" connectable="0" parent="0_duTo_WQNxxpT2Jceww-21">
          <mxGeometry x="0.4749" y="2" relative="1" as="geometry">
            <mxPoint as="offset" />
          </mxGeometry>
        </mxCell>
        <mxCell id="0_duTo_WQNxxpT2Jceww-23" value="点云&lt;div&gt;&lt;span style=&quot;color: rgb(23, 43, 77); font-family: -apple-system, BlinkMacSystemFont, &amp;quot;Segoe UI&amp;quot;, Roboto, Oxygen, Ubuntu, &amp;quot;Fira Sans&amp;quot;, &amp;quot;Droid Sans&amp;quot;, &amp;quot;Helvetica Neue&amp;quot;, sans-serif; text-align: left;&quot;&gt;&lt;font style=&quot;font-size: 12px;&quot;&gt;（x，y，z, intensity）&lt;/font&gt;&lt;/span&gt;&lt;/div&gt;" style="rounded=1;whiteSpace=wrap;html=1;fillColor=#dae8fc;strokeColor=#6c8ebf;" vertex="1" parent="1">
          <mxGeometry x="1" y="-118" width="120" height="60" as="geometry" />
        </mxCell>
        <mxCell id="0_duTo_WQNxxpT2Jceww-24" style="edgeStyle=orthogonalEdgeStyle;rounded=0;orthogonalLoop=1;jettySize=auto;html=1;exitX=0.5;exitY=1;exitDx=0;exitDy=0;entryX=0.5;entryY=0;entryDx=0;entryDy=0;" edge="1" parent="1" source="0_duTo_WQNxxpT2Jceww-26" target="0_duTo_WQNxxpT2Jceww-27">
          <mxGeometry relative="1" as="geometry" />
        </mxCell>
        <mxCell id="0_duTo_WQNxxpT2Jceww-25" style="edgeStyle=orthogonalEdgeStyle;rounded=0;orthogonalLoop=1;jettySize=auto;html=1;exitX=1;exitY=0.5;exitDx=0;exitDy=0;" edge="1" parent="1" source="0_duTo_WQNxxpT2Jceww-26">
          <mxGeometry relative="1" as="geometry">
            <mxPoint x="380" y="-88" as="targetPoint" />
          </mxGeometry>
        </mxCell>
        <mxCell id="0_duTo_WQNxxpT2Jceww-26" value="RANSAC拟合&lt;div&gt;旋转点云&lt;/div&gt;" style="whiteSpace=wrap;html=1;rounded=0;" vertex="1" parent="1">
          <mxGeometry x="225" y="-116" width="90" height="56" as="geometry" />
        </mxCell>
        <mxCell id="0_duTo_WQNxxpT2Jceww-27" value="KMeans分块&lt;div&gt;cluster_n=1-&amp;gt;4&lt;br&gt;&lt;div&gt;&lt;br&gt;&lt;/div&gt;&lt;/div&gt;" style="whiteSpace=wrap;html=1;rounded=0;fillColor=#ffe6cc;strokeColor=#d79b00;" vertex="1" parent="1">
          <mxGeometry x="225" y="-28" width="90" height="52" as="geometry" />
        </mxCell>
        <mxCell id="0_duTo_WQNxxpT2Jceww-28" value="随机采样&lt;div&gt;划分数据&lt;/div&gt;" style="whiteSpace=wrap;html=1;rounded=0;" vertex="1" parent="1">
          <mxGeometry x="225" y="54" width="90" height="56" as="geometry" />
        </mxCell>
        <mxCell id="0_duTo_WQNxxpT2Jceww-29" value="" style="shape=flexArrow;endArrow=classic;html=1;rounded=0;endSize=4;startSize=3;width=9.166666666666668;endWidth=14.027777777777777;" edge="1" parent="1">
          <mxGeometry width="50" height="50" relative="1" as="geometry">
            <mxPoint x="269.58" y="23.58" as="sourcePoint" />
            <mxPoint x="270" y="54" as="targetPoint" />
          </mxGeometry>
        </mxCell>
        <mxCell id="0_duTo_WQNxxpT2Jceww-30" value="" style="shape=flexArrow;endArrow=classic;html=1;rounded=0;endSize=5;startSize=5;width=9.166666666666668;entryX=0;entryY=0.5;entryDx=0;entryDy=0;" edge="1" parent="1">
          <mxGeometry width="50" height="50" relative="1" as="geometry">
            <mxPoint x="314" y="79.58" as="sourcePoint" />
            <mxPoint x="399" y="-6" as="targetPoint" />
            <Array as="points">
              <mxPoint x="349" y="80" />
              <mxPoint x="349" y="-6" />
            </Array>
          </mxGeometry>
        </mxCell>
        <mxCell id="0_duTo_WQNxxpT2Jceww-31" value="&lt;font style=&quot;font-size: 12px;&quot;&gt;z*2,nx,ny,nz,c&lt;/font&gt;" style="edgeLabel;html=1;align=center;verticalAlign=middle;resizable=0;points=[];rotation=90;" vertex="1" connectable="0" parent="0_duTo_WQNxxpT2Jceww-30">
          <mxGeometry x="-0.1228" relative="1" as="geometry">
            <mxPoint x="15" as="offset" />
          </mxGeometry>
        </mxCell>
        <mxCell id="0_duTo_WQNxxpT2Jceww-32" value="" style="shape=flexArrow;endArrow=classic;html=1;rounded=0;endSize=5;startSize=5;width=9.166666666666668;entryX=0;entryY=0.5;entryDx=0;entryDy=0;exitX=1;exitY=0.5;exitDx=0;exitDy=0;" edge="1" parent="1" source="0_duTo_WQNxxpT2Jceww-2" target="0_duTo_WQNxxpT2Jceww-33">
          <mxGeometry width="50" height="50" relative="1" as="geometry">
            <mxPoint x="520" y="80" as="sourcePoint" />
            <mxPoint x="580" y="-78.00000000000011" as="targetPoint" />
            <Array as="points">
              <mxPoint x="550" y="-5" />
              <mxPoint x="550" y="-91" />
            </Array>
          </mxGeometry>
        </mxCell>
        <mxCell id="0_duTo_WQNxxpT2Jceww-33" value="差值筛选底板&lt;div&gt;&lt;font color=&quot;#ff3333&quot;&gt;&lt;b&gt;thres_up=0-&amp;gt;2&lt;/b&gt;&lt;/font&gt;&lt;/div&gt;" style="whiteSpace=wrap;html=1;rounded=0;fillColor=#ffe6cc;strokeColor=#d79b00;" vertex="1" parent="1">
          <mxGeometry x="605" y="-116" width="110" height="50" as="geometry" />
        </mxCell>
        <mxCell id="0_duTo_WQNxxpT2Jceww-34" style="edgeStyle=orthogonalEdgeStyle;rounded=0;orthogonalLoop=1;jettySize=auto;html=1;exitX=0.5;exitY=1;exitDx=0;exitDy=0;strokeColor=#9999FF;dashed=1;" edge="1" parent="1" source="0_duTo_WQNxxpT2Jceww-37" target="0_duTo_WQNxxpT2Jceww-39">
          <mxGeometry relative="1" as="geometry" />
        </mxCell>
        <mxCell id="0_duTo_WQNxxpT2Jceww-35" style="edgeStyle=orthogonalEdgeStyle;rounded=0;orthogonalLoop=1;jettySize=auto;html=1;exitX=1;exitY=0.5;exitDx=0;exitDy=0;entryX=0;entryY=0.5;entryDx=0;entryDy=0;" edge="1" parent="1" source="0_duTo_WQNxxpT2Jceww-37" target="0_duTo_WQNxxpT2Jceww-11">
          <mxGeometry relative="1" as="geometry" />
        </mxCell>
        <mxCell id="0_duTo_WQNxxpT2Jceww-36" style="edgeStyle=orthogonalEdgeStyle;rounded=0;orthogonalLoop=1;jettySize=auto;html=1;exitX=1;exitY=0.5;exitDx=0;exitDy=0;entryX=0;entryY=0.5;entryDx=0;entryDy=0;strokeColor=#9999FF;dashed=1;dashPattern=12 12;" edge="1" parent="1" source="0_duTo_WQNxxpT2Jceww-39" target="0_duTo_WQNxxpT2Jceww-11">
          <mxGeometry relative="1" as="geometry" />
        </mxCell>
        <mxCell id="0_duTo_WQNxxpT2Jceww-37" value="合并点云" style="whiteSpace=wrap;html=1;rounded=0;" vertex="1" parent="1">
          <mxGeometry x="605" y="-26" width="110" height="50" as="geometry" />
        </mxCell>
        <mxCell id="0_duTo_WQNxxpT2Jceww-38" value="" style="shape=flexArrow;endArrow=classic;html=1;rounded=0;endSize=5;startSize=5;width=9.166666666666668;exitX=0.5;exitY=1;exitDx=0;exitDy=0;" edge="1" parent="1" source="0_duTo_WQNxxpT2Jceww-33" target="0_duTo_WQNxxpT2Jceww-37">
          <mxGeometry width="50" height="50" relative="1" as="geometry">
            <mxPoint x="650" y="-50.000000000000014" as="sourcePoint" />
            <mxPoint x="735" y="-49.58000000000001" as="targetPoint" />
          </mxGeometry>
        </mxCell>
        <mxCell id="0_duTo_WQNxxpT2Jceww-39" value="Findbase&lt;div&gt;最近邻找底板&lt;/div&gt;" style="whiteSpace=wrap;html=1;rounded=0;fillColor=#CCCCFF;" vertex="1" parent="1">
          <mxGeometry x="605" y="54" width="110" height="50" as="geometry" />
        </mxCell>
        <mxCell id="0_duTo_WQNxxpT2Jceww-40" value="&lt;span style=&quot;background-color: rgb(255, 255, 255);&quot;&gt;预处理&lt;/span&gt;" style="text;html=1;align=center;verticalAlign=middle;resizable=0;points=[];autosize=1;strokeColor=none;fillColor=none;" vertex="1" parent="1">
          <mxGeometry x="200" y="-152" width="60" height="30" as="geometry" />
        </mxCell>
        <mxCell id="0_duTo_WQNxxpT2Jceww-41" value="&lt;span style=&quot;background-color: rgb(255, 255, 255);&quot;&gt;后处理&lt;/span&gt;" style="text;html=1;align=center;verticalAlign=middle;resizable=0;points=[];autosize=1;strokeColor=none;fillColor=none;" vertex="1" parent="1">
          <mxGeometry x="577" y="-152" width="60" height="30" as="geometry" />
        </mxCell>
        <mxCell id="0_duTo_WQNxxpT2Jceww-42" value="旋转矩阵&lt;div&gt;Matrix(3*3)&lt;/div&gt;" style="rounded=1;whiteSpace=wrap;html=1;fillColor=#d5e8d4;strokeColor=#82b366;" vertex="1" parent="1">
          <mxGeometry x="380" y="-107" width="70" height="38" as="geometry" />
        </mxCell>
        <mxCell id="0_duTo_WQNxxpT2Jceww-43" style="edgeStyle=orthogonalEdgeStyle;rounded=0;orthogonalLoop=1;jettySize=auto;html=1;exitX=1;exitY=0.5;exitDx=0;exitDy=0;entryX=0;entryY=0.5;entryDx=0;entryDy=0;strokeColor=#000000;" edge="1" parent="1" source="0_duTo_WQNxxpT2Jceww-37" target="0_duTo_WQNxxpT2Jceww-12">
          <mxGeometry relative="1" as="geometry" />
        </mxCell>
        <mxCell id="0_duTo_WQNxxpT2Jceww-44" style="edgeStyle=orthogonalEdgeStyle;rounded=0;orthogonalLoop=1;jettySize=auto;html=1;exitX=1;exitY=0.5;exitDx=0;exitDy=0;entryX=0;entryY=0.5;entryDx=0;entryDy=0;strokeColor=#9999FF;dashed=1;dashPattern=12 12;" edge="1" parent="1" source="0_duTo_WQNxxpT2Jceww-39" target="0_duTo_WQNxxpT2Jceww-12">
          <mxGeometry relative="1" as="geometry" />
        </mxCell>
      </root>
    </mxGraphModel>
  </diagram>
</mxfile>
